<svg width="100" height="100" viewBox="0 0 100 100" fill="none" xmlns="http://www.w3.org/2000/svg">
<path fill-rule="evenodd" clip-rule="evenodd" d="M38.4125 32.1625C38.7028 31.8715 39.0476 31.6406 39.4273 31.483C39.8069 31.3255 40.2139 31.2444 40.625 31.2444C41.036 31.2444 41.443 31.3255 41.8227 31.483C42.2023 31.6406 42.5472 31.8715 42.8375 32.1625L50 39.3313L57.1625 32.1625C57.7493 31.5757 58.5451 31.2461 59.375 31.2461C60.2048 31.2461 61.0007 31.5757 61.5875 32.1625C62.1743 32.7493 62.5039 33.5452 62.5039 34.375C62.5039 35.2048 62.1743 36.0007 61.5875 36.5875L54.4187 43.75L61.5875 50.9125C62.1743 51.4993 62.5039 52.2952 62.5039 53.125C62.5039 53.9548 62.1743 54.7507 61.5875 55.3375C61.0007 55.9243 60.2048 56.2539 59.375 56.2539C58.5451 56.2539 57.7493 55.9243 57.1625 55.3375L50 48.1687L42.8375 55.3375C42.5469 55.6281 42.202 55.8585 41.8224 56.0158C41.4427 56.173 41.0359 56.2539 40.625 56.2539C40.2141 56.2539 39.8072 56.173 39.4276 56.0158C39.048 55.8585 38.703 55.6281 38.4125 55.3375C38.1219 55.047 37.8914 54.702 37.7342 54.3224C37.577 53.9428 37.496 53.5359 37.496 53.125C37.496 52.7141 37.577 52.3072 37.7342 51.9276C37.8914 51.548 38.1219 51.203 38.4125 50.9125L45.5812 43.75L38.4125 36.5875C38.1214 36.2972 37.8906 35.9524 37.733 35.5727C37.5755 35.1931 37.4944 34.786 37.4944 34.375C37.4944 33.964 37.5755 33.5569 37.733 33.1773C37.8906 32.7976 38.1214 32.4528 38.4125 32.1625Z" fill="black"/>
<path d="M12.5 12.5C12.5 9.18479 13.817 6.00537 16.1612 3.66117C18.5054 1.31696 21.6848 0 25 0L75 0C78.3152 0 81.4946 1.31696 83.8388 3.66117C86.183 6.00537 87.5 9.18479 87.5 12.5V96.875C87.4997 97.4403 87.3461 97.9949 87.0555 98.4797C86.765 98.9646 86.3483 99.3616 85.85 99.6284C85.3517 99.8952 84.7903 100.022 84.2257 99.9948C83.6611 99.9678 83.1143 99.7882 82.6437 99.475L50 81.8812L17.3562 99.475C16.8857 99.7882 16.3389 99.9678 15.7743 99.9948C15.2097 100.022 14.6483 99.8952 14.15 99.6284C13.6517 99.3616 13.235 98.9646 12.9445 98.4797C12.6539 97.9949 12.5003 97.4403 12.5 96.875V12.5ZM25 6.25C23.3424 6.25 21.7527 6.90848 20.5806 8.08058C19.4085 9.25268 18.75 10.8424 18.75 12.5V91.0375L48.2688 75.525C48.7816 75.1837 49.3839 75.0016 50 75.0016C50.6161 75.0016 51.2184 75.1837 51.7313 75.525L81.25 91.0375V12.5C81.25 10.8424 80.5915 9.25268 79.4194 8.08058C78.2473 6.90848 76.6576 6.25 75 6.25H25Z" fill="black"/>
</svg>
