<svg width="40" height="40" viewBox="0 0 40 40" fill="none" xmlns="http://www.w3.org/2000/svg">
<path d="M19.9999 3.33333C10.7833 3.33333 3.33325 10.7833 3.33325 20C3.33325 29.2167 10.7833 36.6667 19.9999 36.6667C29.2166 36.6667 36.6666 29.2167 36.6666 20C36.6666 10.7833 29.2166 3.33333 19.9999 3.33333ZM27.1666 27.1667C26.5166 27.8167 25.4666 27.8167 24.8166 27.1667L19.9999 22.35L15.1833 27.1667C14.5333 27.8167 13.4833 27.8167 12.8333 27.1667C12.1833 26.5167 12.1833 25.4667 12.8333 24.8167L17.6499 20L12.8333 15.1833C12.1833 14.5333 12.1833 13.4833 12.8333 12.8333C13.4833 12.1833 14.5333 12.1833 15.1833 12.8333L19.9999 17.65L24.8166 12.8333C25.4666 12.1833 26.5166 12.1833 27.1666 12.8333C27.8166 13.4833 27.8166 14.5333 27.1666 15.1833L22.3499 20L27.1666 24.8167C27.7999 25.45 27.7999 26.5167 27.1666 27.1667Z" fill="black"/>
</svg>
