<svg width="144" height="112" viewBox="0 0 144 112" fill="none" xmlns="http://www.w3.org/2000/svg">
<path d="M0 85.504C0 90.3166 1.17642 94.7549 3.52924 98.8188C5.88207 102.883 9.09048 106.091 13.1545 108.444C17.2184 110.797 21.6033 111.973 26.3624 111.973H84.2741C89.0332 111.973 93.4715 110.797 97.5355 108.444C101.599 106.091 104.861 102.883 107.214 98.8188C109.567 94.7549 110.797 90.3166 110.797 85.504C110.797 81.9747 110.048 78.392 108.551 74.8093C112.615 69.8897 114.647 63.9542 114.647 57.1631C114.647 53.3665 113.898 49.7303 112.455 46.2545C111.011 42.7787 108.979 39.8377 106.466 37.3244C103.952 34.8112 101.011 32.7792 97.5355 31.3354C94.0597 29.8382 90.4235 29.143 86.6269 29.143C78.7128 29.143 71.8148 32.2445 65.8792 38.4474C61.7618 36.0945 56.9492 34.9181 51.4414 34.9181C43.9017 34.9181 37.271 37.271 31.4958 41.9231C25.7207 46.5753 21.9776 52.5644 20.3734 59.8367C14.3843 61.227 9.51827 64.275 5.72165 69.0876C1.92504 73.9002 0 79.3545 0 85.504ZM9.14395 85.504C9.14395 81.0122 10.6412 77.1621 13.6357 73.9002C16.6302 70.6384 20.3734 68.7668 24.8651 68.2321L27.5388 68.0716C28.1805 68.0716 28.5548 67.7508 28.5548 67.1091L28.9291 64.2216C29.6777 58.4464 32.191 53.5803 36.4689 49.7303C40.7467 45.8267 45.7732 43.9017 51.4949 43.9017C57.3769 43.9017 62.5104 45.8802 66.8417 49.7837C71.2266 53.6873 73.6329 58.4999 74.1676 64.275L74.5419 67.3765C74.6489 67.9647 75.0232 68.2855 75.6649 68.2855H84.2741C88.9797 68.2855 93.0437 69.9967 96.466 73.419C99.8883 76.8413 101.599 80.8518 101.599 85.5574C101.599 90.4235 99.8883 94.541 96.5195 97.9633C93.1507 101.386 89.0332 103.097 84.3275 103.097H26.3624C21.6567 103.097 17.6462 101.386 14.2239 97.9098C10.8551 94.434 9.14395 90.3166 9.14395 85.504ZM44.9711 19.8921C44.9711 21.1755 45.3989 22.2984 46.2545 23.2609L49.7837 26.6832C51.1206 27.6992 52.2435 28.127 53.206 28.0201C54.329 28.0201 55.2915 27.5388 56.1471 26.6298C57.0026 25.7207 57.4304 24.5978 57.4304 23.3144C57.4304 22.031 56.9492 20.9616 56.0401 20.1595L52.8852 16.6302C51.9227 15.7747 50.8532 15.3469 49.6233 15.3469C48.34 15.3469 47.217 15.7747 46.308 16.6837C45.3989 17.5393 44.9711 18.6087 44.9711 19.8921ZM73.5259 43.5808C77.2156 39.9981 81.6004 38.2335 86.6269 38.2335C91.9208 38.2335 96.4125 40.0516 100.102 43.7412C103.792 47.4309 105.663 51.8692 105.663 57.1631C105.663 60.4784 104.754 63.7938 102.936 67.0022C97.7494 61.8687 91.5465 59.302 84.2741 59.302H82.5629C81.2261 53.4734 78.2316 48.233 73.5259 43.5808ZM82.2421 15.3469C82.2421 16.7372 82.6699 17.8066 83.472 18.6622C84.2741 19.5178 85.3435 19.8921 86.6269 19.8921C88.0172 19.8921 89.0867 19.4643 89.9423 18.6622C90.7978 17.8066 91.1721 16.7372 91.1721 15.3469V4.38482C91.1721 3.10146 90.7444 2.08546 89.8888 1.22989C89.0332 0.374314 87.9637 0 86.6269 0C85.3435 0 84.3275 0.427787 83.472 1.22989C82.6164 2.03199 82.2421 3.10146 82.2421 4.38482V15.3469ZM111.759 27.5923C111.759 28.9826 112.134 30.052 112.936 30.9076C114.059 31.7632 115.182 32.191 116.251 32.191C117.214 32.191 118.283 31.7632 119.406 30.9076L127.053 23.2609C127.908 22.2984 128.336 21.1755 128.336 19.8386C128.336 18.5553 127.908 17.4858 127.053 16.6302C126.197 15.7747 125.128 15.3469 123.898 15.3469C122.614 15.3469 121.599 15.7747 120.796 16.6302L112.936 24.2769C112.134 25.2929 111.759 26.3624 111.759 27.5923ZM115.984 90.9048C115.984 92.1881 116.412 93.3111 117.321 94.2736L120.796 97.6424C121.599 98.498 122.614 98.9258 123.898 98.9258C125.181 98.9258 126.251 98.498 127.106 97.5889C127.962 96.6799 128.39 95.6104 128.39 94.2736C128.39 93.0972 127.962 92.0277 127.106 91.1721L123.63 87.6964C122.775 86.8408 121.759 86.413 120.583 86.413C119.299 86.413 118.23 86.8408 117.374 87.6964C116.465 88.5519 115.984 89.6214 115.984 90.9048ZM123.844 57.1631C123.844 58.393 124.326 59.4089 125.235 60.2645C126.09 61.1201 127.213 61.5479 128.497 61.5479H139.405C140.635 61.5479 141.651 61.1201 142.507 60.318C143.362 59.5159 143.736 58.4464 143.736 57.1631C143.736 55.8797 143.309 54.8102 142.507 53.9547C141.704 53.0991 140.635 52.6178 139.405 52.6178H128.497C127.213 52.6178 126.144 53.0456 125.235 53.9547C124.272 54.8637 123.844 55.9332 123.844 57.1631Z" fill="black"/>
</svg>
